HIERARCHY
ROOT ui
{
	 OFFSET 0 0 0
	 CHANNELS 3 XPosition YPosition Z Position
	 EndSite
	 {
	 OFFSET 0 -1 0
	 }
}
ROOT li
{
	 OFFSET 0 0 0
	 CHANNELS 3 XPosition YPosition Z Position
	 EndSite
	 {
	 OFFSET 0 -1 0
	 }
}
ROOT ul
{
	 OFFSET 0 0 0
	 CHANNELS 3 XPosition YPosition Z Position
	 EndSite
	 {
	 OFFSET 0 -1 0
	 }
}
ROOT ll
{
	 OFFSET 0 0 0
	 CHANNELS 3 XPosition YPosition Z Position
	 EndSite
	 {
	 OFFSET 0 -1 0
	 }
}
ROOT tt
{
	 OFFSET 0 0 0
	 CHANNELS 3 XPosition YPosition Z Position
	 EndSite
	 {
	 OFFSET 0 -1 0
	 }
}
ROOT tb
{
	 OFFSET 0 0 0
	 CHANNELS 3 XPosition YPosition Z Position
	 EndSite
	 {
	 OFFSET 0 -1 0
	 }
}
ROOT td
{
	 OFFSET 0 0 0
	 CHANNELS 3 XPosition YPosition Z Position
	 EndSite
	 {
	 OFFSET 0 -1 0
	 }
}
ROOT v
{
	 OFFSET 0 0 0
	 CHANNELS 3 XPosition YPosition Z Position
	 EndSite
	 {
	 OFFSET 0 -1 0
	 }
}
ROOT bn
{
	 OFFSET 0 0 0
	 CHANNELS 3 XPosition YPosition Z Position
	 EndSite
	 {
	 OFFSET 0 -1 0
	 }
}
MOTION
Frames: 27
Frame Time: 0.002
0.015669743537902833	5.643759965896606E-4	0		0.6537362060546875	-2.55327978515625	0		-1.0964556884765626	0.06287126922607422	0		-0.5028097839355469	-2.7592783203125	0		2.5070869140625	-0.2984688720703125	0		3.907111328125	-0.3085056457519531	0		5.28582958984375	-0.2761861572265625	0		5.775623046875	0.3133238220214844	0		-0.31369000244140627	5.87677880859375	0		
0.020042821884155272	-0.004782156944274902	0		0.7009169311523438	-2.562369873046875	0		-1.0969959716796875	0.06266624069213868	0		-0.4705555114746094	-2.7630595703125	0		2.466763671875	-0.28420880126953124	0		3.903452392578125	-0.3149287109375	0		5.272173828125	-0.2825180969238281	0		5.77940625	0.2965942687988281	0		-0.3149018859863281	5.87754833984375	0		
-0.030384752273559572	-0.0033223330974578857	0		0.6524719848632813	-2.553979736328125	0		-1.0974434814453125	0.0623563232421875	0		-0.5040957336425781	-2.75985595703125	0		2.463513916015625	-0.2716561279296875	0		3.891284912109375	-0.2973023986816406	0		5.25584326171875	-0.27489532470703126	0		5.78325537109375	0.27970166015625	0		-0.4341962890625	5.86916943359375	0		
0.014308937072753906	-5.353149771690368E-4	0		0.6799904174804687	-2.553944091796875	0		-1.0937408447265624	0.06587779235839844	0		-0.4995014343261719	-2.754381103515625	0		2.467515380859375	-0.24931570434570313	0		3.880954833984375	-0.29479824829101564	0		5.255462890625	-0.27562521362304687	0		5.78645068359375	0.262683349609375	0		-0.4342685546875	5.86872509765625	0		
-0.02392564582824707	0.0025345890522003173	0		0.6577146606445312	-2.546173095703125	0		-1.0958939208984375	0.07340036773681641	0		-0.49888986206054686	-2.75293603515625	0		2.455481689453125	-0.233798095703125	0		3.855671142578125	-0.294129638671875	0		5.23621240234375	-0.27312261962890627	0		5.7777666015625	0.27368768310546876	0		-0.31512744140625	5.8762001953125	0		
0.018715282440185547	-0.006834391117095947	0		0.70418994140625	-2.558639404296875	0		-1.094244140625	0.06476454925537109	0		-0.5002669067382812	-2.755549560546875	0		2.40862548828125	-0.2117799072265625	0		3.846489501953125	-0.29180667114257813	0		5.22288232421875	-0.27979388427734375	0		5.77466015625	0.25838623046875	0		-0.3028831481933594	5.887359375	0		
-0.03633127975463867	-6.543520092964172E-4	0		0.671183349609375	-2.54385791015625	0		-1.104377685546875	0.06523873901367187	0		-0.38162127685546876	-2.762259765625	0		2.42960986328125	-0.20397369384765626	0		3.792564697265625	-0.2778059997558594	0		5.20690234375	-0.26948712158203125	0		5.76673828125	0.26219534301757813	0		-0.3169379577636719	5.87786865234375	0		
0.01846729850769043	-0.008395386695861816	0		0.6787870483398437	-2.556837158203125	0		-1.104468017578125	0.06446232604980469	0		-0.5007398071289062	-2.757068115234375	0		2.379818115234375	-0.1860535430908203	0		3.788360595703125	-0.28470855712890625	0		5.18055078125	-0.2850752258300781	0		5.76182080078125	0.281343017578125	0		-0.42081680297851565	5.876806640625	0		
-0.030340509414672853	0.004531517028808594	0		0.658828369140625	-2.547422607421875	0		-1.090467041015625	0.06537342834472656	0		-0.4947601623535156	-2.7510458984375	0		2.3670322265625	-0.17182170104980468	0		3.786552490234375	-0.27171481323242186	0		5.16879443359375	-0.26896630859375	0		5.76892724609375	0.27912924194335936	0		-0.43381112670898436	5.86514794921875	0		
0.022712684631347655	0.004676248073577881	0		0.6789788818359375	-2.535748291015625	0		-1.0904378662109375	0.06445047760009766	0		-0.5226776733398437	-2.742519775390625	0		2.342578857421875	-0.14145333862304688	0		3.76464013671875	-0.26844479370117186	0		5.14305126953125	-0.2556805419921875	0		5.76303515625	0.24793003845214845	0		-0.45066973876953126	5.85848828125	0		
-0.030225141525268555	0.0025473430156707764	0		0.6758946533203125	-2.541744384765625	0		-1.096261962890625	0.06856542205810547	0		-0.461896484375	-2.75655419921875	0		2.303836669921875	-0.13190135192871094	0		3.71984375	-0.26184063720703127	0		5.13003076171875	-0.2626631774902344	0		5.76052001953125	0.28571414184570315	0		-0.31705828857421875	5.87523095703125	0		
0.016835750579833983	-0.00432537317276001	0		0.6759630737304687	-2.542845458984375	0		-1.1001578369140625	0.06459077453613281	0		-0.5256905517578125	-2.74853564453125	0		2.298120849609375	-0.12495576477050781	0		3.69805810546875	-0.25867031860351564	0		5.10124658203125	-0.25942083740234373	0		5.75055810546875	0.27182254028320313	0		-0.3176785583496094	5.87617919921875	0		
-0.0578992919921875	-0.002182842969894409	0		0.6771563110351563	-2.541011962890625	0		-1.0958851318359375	0.0664278106689453	0		-0.48954263305664064	-2.749258544921875	0		2.28250927734375	-0.11588474273681641	0		3.692406982421875	-0.25181146240234376	0		5.10140771484375	-0.26370513916015625	0		5.75783349609375	0.26754412841796876	0		-0.435464599609375	5.86506298828125	0		
0.020419544219970703	-0.002678231954574585	0		0.654469482421875	-2.53681298828125	0		-1.0955870361328126	0.06528661346435546	0		-0.5192003173828125	-2.742908203125	0		2.266974365234375	-0.10685032653808593	0		3.667988525390625	-0.23566471862792968	0		5.07898876953125	-0.24763186645507812	0		5.75804296875	0.2652388916015625	0		-0.43598687744140624	5.864919921875	0		
0.02198919105529785	0.007093750953674317	0		0.6729739379882812	-2.527345703125	0		-1.0880845947265625	0.0709847412109375	0		-0.48085690307617185	-2.7427509765625	0		2.2425791015625	-0.09469198608398438	0		3.645419677734375	-0.23357362365722656	0		5.06626513671875	-0.25474449157714846	0		5.7611064453125	0.25413572692871095	0		-0.4354589538574219	5.86372216796875	0		
0.019418575286865233	0.002905397891998291	0		0.67340283203125	-2.528598876953125	0		-1.087603271484375	0.06976728057861328	0		-0.5242046508789062	-2.730233154296875	0		2.224923583984375	-0.10366901397705078	0		3.632913818359375	-0.23366543579101562	0		5.03405126953125	-0.23752687072753906	0		5.75502880859375	0.25205636596679687	0		-0.31569058227539065	5.87146337890625	0		
0.02186557388305664	-0.006391828060150147	0		0.6978452758789062	-2.536280517578125	0		-1.1010338134765625	0.0677572250366211	0		-0.46759921264648435	-2.728445068359375	0		2.22243798828125	-0.10891246795654297	0		3.605702880859375	-0.22250482177734374	0		5.03152978515625	-0.24480934143066407	0		5.7589130859375	0.23574559020996094	0		-0.3028220520019531	5.88199755859375	0		
0.007795265197753906	0.0065786771774292	0		0.64966162109375	-2.528733642578125	0		-1.0863294677734374	0.06724226379394531	0		-0.5297479248046875	-2.71865234375	0		2.22898876953125	-0.11831071472167969	0		3.5794111328125	-0.2223504638671875	0		5.005357421875	-0.23766500854492187	0		5.74881591796875	0.2494734344482422	0		-0.3001304321289063	5.87868212890625	0		
0.021482292175292968	-9.387009739875794E-4	0		0.6794887084960938	-2.5285234375	0		-1.0814708251953125	0.06987425994873046	0		-0.49709127807617187	-2.72849462890625	0		2.117745361328125	-0.12069229888916015	0		3.591406005859375	-0.211827880859375	0		4.996150390625	-0.23877928161621093	0		5.76291796875	0.24496363830566406	0		-0.41852340698242185	5.8684150390625	0		
0.0313333740234375	-0.004396376132965088	0		0.6605611572265625	-2.52048095703125	0		-1.07653466796875	0.07148807525634765	0		-0.4699891357421875	-2.71925	0		2.108668701171875	-0.11980223083496094	0		3.54238720703125	-0.20723948669433595	0		4.959607421875	-0.20638287353515625	0		5.742205078125	0.2506259765625	0		-0.30050146484375	5.8781103515625	0		
0.013509915351867676	0.006617977142333985	0		0.68670068359375	-2.515200927734375	0		-1.08553125	0.07232675933837891	0		-0.512733154296875	-2.7068212890625	0		2.083083251953125	-0.15361727905273437	0		3.5173310546875	-0.21002798461914063	0		4.9464814453125	-0.21334426879882812	0		5.74289794921875	0.24857716369628907	0		-0.29965921020507813	5.8767958984375	0		
-0.03543036651611328	0.00716169023513794	0		0.6379083862304687	-2.51063623046875	0		-1.084497802734375	0.07098661804199219	0		-0.4786842041015625	-2.712703125	0		2.0639228515625	-0.16651548767089844	0		3.493495849609375	-0.20379849243164064	0		4.93342431640625	-0.22025436401367188	0		5.7365078125	0.24692547607421875	0		-0.29977587890625	5.87749755859375	0		
0.015628708839416503	0.004014070987701416	0		0.6640416870117187	-2.515332275390625	0		-1.083417236328125	0.06964234924316406	0		-0.540292724609375	-2.70195654296875	0		1.980008544921875	-0.16728892517089844	0		3.49962109375	-0.20303770446777344	0		4.92451806640625	-0.22117938232421874	0		5.7421416015625	0.22585464477539063	0		-0.41712274169921876	5.8661865234375	0		
-0.033233158111572264	0.0045693740844726565	0		0.6454553833007812	-2.506251953125	0		-1.0723416748046875	0.06612889862060548	0		-0.518010498046875	-2.701628662109375	0		1.98392822265625	-0.18052728271484375	0		3.461089111328125	-0.18347723388671874	0		4.90986572265625	-0.20895098876953125	0		5.7410419921875	0.25880682373046876	0		-0.41630609130859375	5.86487548828125	0		
0.02092323303222656	0.004396271228790283	0		0.6737147827148438	-2.508946533203125	0		-1.06899658203125	0.0777506103515625	0		-0.5275657958984376	-2.693754638671875	0		1.940008544921875	-0.1849298095703125	0		3.47799267578125	-0.19881689453125	0		4.89207861328125	-0.20561769104003907	0		5.73889111328125	0.24173194885253907	0		-0.41552545166015625	5.86357177734375	0		
-0.052915481567382815	0.005387424945831299	0		0.6500753173828125	-2.5067490234375	0		-1.0759837646484376	0.069544921875	0		-0.46138958740234376	-2.704146484375	0		1.9340057373046875	-0.19494512939453126	0		3.45424462890625	-0.1934268798828125	0		4.8750283203125	-0.2182452850341797	0		5.739705078125	0.2402176513671875	0		-0.28246078491210935	5.881060546875	0		
0.023185449600219725	0.0018757779598236083	0		0.6763462524414062	-2.51137109375	0		-1.0648955078125	0.06603787231445313	0		-0.53778857421875	-2.6891396484375	0		1.90293701171875	-0.20851461791992187	0		3.412594482421875	-0.18169749450683595	0		4.84349560546875	-0.1995726318359375	0		5.743474609375	0.25426783752441406	0		-0.29594027709960935	5.8710166015625	0		
